<svg viewBox="0 0 64 64" xmlns="http://www.w3.org/2000/svg"><g id="Save_Nature" data-name="Save Nature"><path d="m59.5088 12a4.4961 4.4961 0 0 0 -4.4912 4.4912v15.2651a4.5448 4.5448 0 0 0 -5.7422.5542l-11.2254 11.2251a6.954 6.954 0 0 0 -2.05 4.95v9.5144a1 1 0 0 0 1 1h16a1 1 0 0 0 1-1v-3.5859l7.3638-7.3641a8.94 8.94 0 0 0 2.6362-6.3635v-24.1953a4.4961 4.4961 0 0 0 -4.4912-4.4912z" fill="#f9d8d2"></path><rect fill="#22b37f" height="7" rx="1" width="24" x="33" y="57"></rect><path d="m4.4912 12a4.4961 4.4961 0 0 1 4.4912 4.4912v15.2651a4.5448 4.5448 0 0 1 5.7422.5542l11.2254 11.2251a6.954 6.954 0 0 1 2.05 4.95v9.5144a1 1 0 0 1 -1 1h-16a1 1 0 0 1 -1-1v-3.5859l-7.3638-7.3641a8.94 8.94 0 0 1 -2.6362-6.3635v-24.1953a4.4961 4.4961 0 0 1 4.4912-4.4912z" fill="#f9d8d2"></path><g fill="#22b37f"><rect height="7" rx="1" width="24" x="7" y="57"></rect><path d="m48.2266.8223a.992.992 0 0 0 -.8466-.795 1.0236 1.0236 0 0 0 -1.044.5508c-.01.0186-.9482 1.7852-5.3232 1.5166-6.3838-.3818-7.7617 8.8907-7.8174 9.2862a1 1 0 0 0 1.7256.8164c.8418-.9131 2.45-.9346 4.3115-.959 2.2149-.0293 4.7256-.0625 6.6055-1.7559 3.3593-3.0244 2.4296-8.4316 2.3886-8.6601z"></path><path d="m22.9873 2.0947c-4.2715.2627-5.2754-1.4326-5.3213-1.5136a1 1 0 0 0 -1.8926.2412c-.041.2285-.9707 5.6357 2.3887 8.66 1.88 1.6934 4.3906 1.7266 6.6055 1.7559 1.8613.0244 3.47.0459 4.3115.959a1 1 0 0 0 1.7256-.8164c-.0557-.3954-1.4531-9.6679-7.8174-9.2861z"></path></g><path d="m41.6328 5.72a8.9113 8.9113 0 0 0 -6.7617 3.3535l-2.3018 2.86a7.6975 7.6975 0 0 0 -.5694.83 7.6936 7.6936 0 0 0 -.57-.8308l-2.3039-2.8627a8.9073 8.9073 0 0 0 -6.7588-3.35.988.988 0 0 0 -1.0176.9824 1 1 0 0 0 .9824 1.0176 6.9131 6.9131 0 0 1 5.238 2.6071l2.3 2.8584a5.7024 5.7024 0 0 1 1.0538 2.0745 1.0006 1.0006 0 0 0 .9649.74 1.0507 1.0507 0 0 0 .1113-.0146 1.0507 1.0507 0 0 0 .1113.0146 1.0006 1.0006 0 0 0 .9649-.74 5.7035 5.7035 0 0 1 1.0527-2.0733l2.2979-2.8567a6.9169 6.9169 0 0 1 5.2412-2.61 1 1 0 0 0 .982-1.0179.9647.9647 0 0 0 -1.0172-.9821z" fill="#02905d"></path><circle cx="32" cy="28" fill="#b3dafe" r="14"></circle><path d="m37.81 15.27-4.44 7.97a.9807.9807 0 0 1 -.87.51.7569.7569 0 0 1 -.15-.01l-7.12-1.06a1.0726 1.0726 0 0 1 -.69-.44l-2.61-3.96a13.9586 13.9586 0 0 1 10.07-4.28 13.7866 13.7866 0 0 1 5.81 1.27z" fill="#22b37f"></path><path d="m46 28a14.0129 14.0129 0 0 1 -13.35 13.98l-.26-.7c-.06-.19-1.66-4.63 1.97-7.67 1.56-1.31 1.35-2.51 1.08-4.03a5.9818 5.9818 0 0 1 0-3.03c.57-1.64 2.32-1.93 4.02-2.21 2.11-.34 4.13-.68 4.78-3.13a13.9213 13.9213 0 0 1 1.76 6.79z" fill="#22b37f"></path><path d="m28.8 32.61c-.39.95-3.32 5.36-3.9 6.23l-.57.86a13.9744 13.9744 0 0 1 -3.4-20.26l.38 2.71a27.7778 27.7778 0 0 0 1.02 4.11c.35 1.11 2.51 2.44 3.94 3.32 1.81 1.11 3.01 1.85 2.53 3.03z" fill="#22b37f"></path><path d="m57.1035 30.8955a6.5005 6.5005 0 0 0 -2.0859-1.3976v2.2584l-.0219-.012a4.5258 4.5258 0 0 1 .6938 6.98l-6.9825 6.9827a1 1 0 1 0 1.4141 1.4141l6.9824-6.9824a6.5437 6.5437 0 0 0 0-9.2432z" fill="#ddb3ac"></path><path d="m6.8965 30.8955a6.5005 6.5005 0 0 1 2.0859-1.3976v2.2584l.0219-.012a4.5258 4.5258 0 0 0 -.6938 6.98l6.9825 6.9827a1 1 0 1 1 -1.4141 1.4141l-6.9824-6.9824a6.5437 6.5437 0 0 1 0-9.2432z" fill="#ddb3ac"></path><path d="m47.9148 6.0839c-4.1648 4.3536-11.196 2.9474-11.196 2.9474l-3.2919 3.1224a.9818.9818 0 0 0 .3309.27 1.0014 1.0014 0 0 0 1.1631-.2265c.8418-.9131 2.45-.9346 4.3115-.959 2.2149-.0293 4.7256-.0625 6.6055-1.7559a7.3385 7.3385 0 0 0 2.0769-3.3984z" fill="#02905d"></path><path d="m16.0851 6.0839c4.1648 4.3536 11.196 2.9473 11.196 2.9473l3.2918 3.1225a.9814.9814 0 0 1 -.3308.27 1.0014 1.0014 0 0 1 -1.1631-.2265c-.8418-.9131-2.45-.9346-4.3115-.959-2.2149-.0293-4.7256-.0625-6.6055-1.7559a7.3376 7.3376 0 0 1 -2.0769-3.3984z" fill="#02905d"></path></g></svg>